<svg width="60" height="60" viewBox="0 0 60 60" fill="none" xmlns="http://www.w3.org/2000/svg">
<g clip-path="url(#clip0)">
<path d="M29.7 9.69995H4C2.9 9.69995 2 10.6 2 11.7V55.7C2 56.7999 2.9 57.7 4 57.7H48C49.1 57.7 50 56.7999 50 55.7V29.7999" fill="#01516E"/>
<path d="M29.7 9.69995H4C2.9 9.69995 2 10.6 2 11.7V55.7C2 56.8 2.9 57.7 4 57.7H48C49.1 57.7 50 56.8 50 55.7V29.7999" stroke="white" stroke-width="4" stroke-miterlimit="10" stroke-linecap="round"/>
<path d="M34.9999 28C38.1999 28 39.6999 30.6 39.6999 33.9C39.6999 37.1 37.0999 39.8 33.8999 39.8H28.6999C25.4999 39.8 22.8999 38 22.8999 34.7" stroke="#50C6DB" stroke-width="4" stroke-linecap="round"/>
<path d="M16.9998 39.5C13.7998 39.5 12.2998 36.8999 12.2998 33.5999C12.2998 30.3999 14.8998 27.7 18.0998 27.7H24.3998C27.5998 27.7 30.0998 29.5999 30.0998 32.7999" stroke="#50C6DB" stroke-width="4" stroke-linecap="round"/>
<path d="M47.7998 24C54.4272 24 59.7998 18.6274 59.7998 12C59.7998 5.37258 54.4272 0 47.7998 0C41.1724 0 35.7998 5.37258 35.7998 12C35.7998 18.6274 41.1724 24 47.7998 24Z" fill="white"/>
<path d="M47.4264 13.6916H48.1864C48.8514 13.6916 49.2314 13.3306 49.2504 12.6656L49.4784 5.36962C49.4974 4.68562 49.1364 4.30562 48.4524 4.30562H47.1604C46.4764 4.30562 46.1154 4.68562 46.1344 5.36962L46.3624 12.6656C46.3814 13.3306 46.7614 13.6916 47.4264 13.6916ZM46.3054 16.8456C46.3054 17.5296 46.6664 17.8906 47.3504 17.8906H48.2624C48.9464 17.8906 49.3074 17.5296 49.3074 16.8456V16.0856C49.3074 15.4016 48.9464 15.0406 48.2624 15.0406H47.3504C46.6664 15.0406 46.3054 15.4016 46.3054 16.0856V16.8456Z" fill="#01516E"/>
</g>
<defs>
<clipPath id="clip0">
<rect width="59.8" height="59.7" fill="white"/>
</clipPath>
</defs>
</svg>
